<svg width="23" height="28" viewBox="0 0 23 28" fill="none" xmlns="http://www.w3.org/2000/svg">
<path d="M12 27.3334L11.6667 23.3334H11.3333C8.17778 23.3334 5.5 22.2334 3.3 20.0334C1.1 17.8334 0 15.1556 0 12.0001C0 8.84453 1.1 6.16675 3.3 3.96675C5.5 1.76675 8.17778 0.666748 11.3333 0.666748C12.9111 0.666748 14.3836 0.96097 15.7507 1.54941C17.1178 2.13786 18.3178 2.94897 19.3507 3.98275C20.3836 5.01653 21.1942 6.21653 21.7827 7.58275C22.3711 8.94897 22.6658 10.4214 22.6667 12.0001C22.6667 13.6667 22.3942 15.2667 21.8493 16.8001C21.3044 18.3334 20.56 19.7556 19.616 21.0667C18.672 22.3779 17.5498 23.5667 16.2493 24.6334C14.9489 25.7001 13.5324 26.6001 12 27.3334ZM11.3 19.3001C11.6778 19.3001 12 19.1667 12.2667 18.9001C12.5333 18.6334 12.6667 18.3112 12.6667 17.9334C12.6667 17.5556 12.5333 17.2334 12.2667 16.9667C12 16.7001 11.6778 16.5667 11.3 16.5667C10.9222 16.5667 10.6 16.7001 10.3333 16.9667C10.0667 17.2334 9.93333 17.5556 9.93333 17.9334C9.93333 18.3112 10.0667 18.6334 10.3333 18.9001C10.6 19.1667 10.9222 19.3001 11.3 19.3001ZM10.3333 15.0667H12.3333C12.3333 14.4001 12.4 13.9334 12.5333 13.6667C12.6667 13.4001 13.0889 12.9112 13.8 12.2001C14.2 11.8001 14.5333 11.3667 14.8 10.9001C15.0667 10.4334 15.2 9.93341 15.2 9.40008C15.2 8.26675 14.8164 7.41653 14.0493 6.84941C13.2822 6.2823 12.3769 5.99919 11.3333 6.00008C10.3556 6.00008 9.53333 6.27253 8.86667 6.81741C8.2 7.3623 7.73333 8.02319 7.46667 8.80008L9.33333 9.53341C9.44444 9.15564 9.65556 8.78319 9.96667 8.41608C10.2778 8.04897 10.7333 7.86586 11.3333 7.86675C11.9333 7.86675 12.3831 8.03341 12.6827 8.36675C12.9822 8.70008 13.1324 9.06675 13.1333 9.46675C13.1333 9.84453 13.0222 10.1836 12.8 10.4841C12.5778 10.7845 12.3111 11.0899 12 11.4001C11.2222 12.0667 10.7498 12.5947 10.5827 12.9841C10.4156 13.3734 10.3324 14.0676 10.3333 15.0667Z" fill="#424242"/>
</svg>
