<svg width="16" height="10" viewBox="0 0 16 10" fill="none" xmlns="http://www.w3.org/2000/svg">
<path d="M15.5834 2.39574L8.58341 9.41657C8.50008 9.49991 8.4098 9.55907 8.31258 9.59407C8.21536 9.62907 8.11119 9.64629 8.00008 9.64574C7.88897 9.64574 7.7848 9.62852 7.68758 9.59407C7.59036 9.55963 7.50008 9.50046 7.41675 9.41657L0.395914 2.39574C0.20147 2.20129 0.104248 1.95824 0.104248 1.66657C0.104248 1.3749 0.208414 1.1249 0.416748 0.916572C0.625081 0.708238 0.868137 0.604072 1.14591 0.604072C1.42369 0.604072 1.66675 0.708238 1.87508 0.916572L8.00008 7.04157L14.1251 0.916571C14.3195 0.722126 14.5592 0.624904 14.8442 0.624904C15.1292 0.624904 15.3756 0.72907 15.5834 0.937404C15.7917 1.14574 15.8959 1.38879 15.8959 1.66657C15.8959 1.94435 15.7917 2.1874 15.5834 2.39574Z" fill="#2E2E2E"/>
</svg>
