<svg width="16" height="9" viewBox="0 0 16 9" fill="none" xmlns="http://www.w3.org/2000/svg">
<path d="M14.8251 1.65614L8.52505 7.97489C8.45005 8.04989 8.3688 8.10314 8.2813 8.13464C8.1938 8.16614 8.10005 8.18164 8.00005 8.18114C7.90005 8.18114 7.8063 8.16564 7.7188 8.13464C7.6313 8.10364 7.55005 8.05039 7.47505 7.97489L1.1563 1.65614C0.981298 1.48114 0.893799 1.26239 0.893799 0.999889C0.893799 0.737389 0.987549 0.51239 1.17505 0.32489C1.36255 0.137389 1.5813 0.0436392 1.8313 0.0436391C2.0813 0.0436391 2.30005 0.137389 2.48755 0.32489L8.00005 5.83739L13.5126 0.324889C13.6876 0.149888 13.9033 0.0623888 14.1598 0.0623888C14.4163 0.0623888 14.638 0.156139 14.8251 0.343639C15.0126 0.531139 15.1063 0.749889 15.1063 0.999889C15.1063 1.24989 15.0126 1.46864 14.8251 1.65614Z" fill="#2E2E2E"/>
</svg>
