<svg width="21" height="18" viewBox="0 0 21 18" fill="none" xmlns="http://www.w3.org/2000/svg">
<path d="M4 17V14H1C0.71667 14 0.479003 13.904 0.287003 13.712C0.0950034 13.52 -0.000663206 13.2827 3.46021e-06 13V8C3.46021e-06 7.15 0.29167 6.43734 0.875003 5.862C1.45834 5.28667 2.16667 4.99934 3 5H17C17.85 5 18.5627 5.28767 19.138 5.863C19.7133 6.43834 20.0007 7.15067 20 8V8.75C19.7 8.58333 19.3833 8.44167 19.05 8.325C18.7167 8.20833 18.3667 8.125 18 8.075V8C18 7.71667 17.904 7.479 17.712 7.287C17.52 7.095 17.2827 6.99934 17 7H3C2.71667 7 2.479 7.096 2.287 7.288C2.095 7.48 1.99934 7.71734 2 8V12H4V11C4 10.7167 4.096 10.479 4.288 10.287C4.48 10.095 4.71734 9.99934 5 10H12.5C12.2333 10.2833 11.9917 10.5917 11.775 10.925C11.5583 11.2583 11.3833 11.6167 11.25 12H6V16H11.1C11.2167 16.3667 11.3583 16.7167 11.525 17.05C11.6917 17.3833 11.8917 17.7 12.125 18H5C4.71667 18 4.479 17.904 4.287 17.712C4.095 17.52 3.99934 17.2827 4 17ZM4 5V2C4 1.45 4.196 0.979002 4.588 0.587002C4.98 0.195002 5.45067 -0.000664969 6 1.69779e-06H14C14.55 1.69779e-06 15.021 0.196002 15.413 0.588002C15.805 0.980002 16.0007 1.45067 16 2V5H14V2H6V5H4ZM16 15H14C13.7167 15 13.479 14.904 13.287 14.712C13.095 14.52 12.9993 14.2827 13 14C13 13.7167 13.096 13.479 13.288 13.287C13.48 13.095 13.7173 12.9993 14 13H16V11C16 10.7167 16.096 10.479 16.288 10.287C16.48 10.095 16.7173 9.99934 17 10C17.2833 10 17.521 10.096 17.713 10.288C17.905 10.48 18.0007 10.7173 18 11V13H20C20.2833 13 20.521 13.096 20.713 13.288C20.905 13.48 21.0007 13.7173 21 14C21 14.2833 20.904 14.521 20.712 14.713C20.52 14.905 20.2827 15.0007 20 15H18V17C18 17.2833 17.904 17.521 17.712 17.713C17.52 17.905 17.2827 18.0007 17 18C16.7167 18 16.479 17.904 16.287 17.712C16.095 17.52 15.9993 17.2827 16 17V15Z" fill="#2E2E2E"/>
</svg>
