<svg width="28" height="23" viewBox="0 0 28 23" fill="none" xmlns="http://www.w3.org/2000/svg">
<path d="M8.79999 11.0001C10.1791 11.0001 11.5018 10.4522 12.4769 9.47705C13.4521 8.50186 14 7.17922 14 5.8001C14 4.42097 13.4521 3.09833 12.4769 2.12314C11.5018 1.14795 10.1791 0.600098 8.79999 0.600098C7.42087 0.600098 6.09823 1.14795 5.12304 2.12314C4.14785 3.09833 3.59999 4.42097 3.59999 5.8001C3.59999 7.17922 4.14785 8.50186 5.12304 9.47705C6.09823 10.4522 7.42087 11.0001 8.79999 11.0001ZM17.8992 19.2321C18.7472 19.5793 19.8256 19.8001 21.1984 19.8001C27.5984 19.8001 27.5984 15.0001 27.5984 15.0001C27.5984 14.3639 27.3458 13.7536 26.896 13.3036C26.4463 12.8536 25.8362 12.6005 25.2 12.6001H17.7952C18.424 13.3617 18.8016 14.3361 18.8016 15.4001V15.9697C18.7983 16.1044 18.7892 16.2389 18.7744 16.3729C18.6664 17.3726 18.3684 18.3428 17.8992 19.2321ZM25.2 7.0001C25.2 8.06096 24.7786 9.07838 24.0284 9.82852C23.2783 10.5787 22.2609 11.0001 21.2 11.0001C20.1391 11.0001 19.1217 10.5787 18.3716 9.82852C17.6214 9.07838 17.2 8.06096 17.2 7.0001C17.2 5.93923 17.6214 4.92182 18.3716 4.17167C19.1217 3.42153 20.1391 3.0001 21.2 3.0001C22.2609 3.0001 23.2783 3.42153 24.0284 4.17167C24.7786 4.92182 25.2 5.93923 25.2 7.0001ZM0.399994 15.8001C0.399994 14.9514 0.737136 14.1375 1.33725 13.5374C1.93737 12.9372 2.7513 12.6001 3.59999 12.6001H14C14.8487 12.6001 15.6626 12.9372 16.2627 13.5374C16.8629 14.1375 17.2 14.9514 17.2 15.8001C17.2 15.8001 17.2 22.2001 8.79999 22.2001C0.399994 22.2001 0.399994 15.8001 0.399994 15.8001Z" fill="#424242"/>
</svg>
