<svg width="28" height="23" viewBox="0 0 28 23" fill="none" xmlns="http://www.w3.org/2000/svg">
<path d="M8.7999 11.0001C10.179 11.0001 11.5017 10.4522 12.4769 9.47705C13.452 8.50186 13.9999 7.17922 13.9999 5.8001C13.9999 4.42097 13.452 3.09833 12.4769 2.12314C11.5017 1.14795 10.179 0.600098 8.7999 0.600098C7.42078 0.600098 6.09814 1.14795 5.12295 2.12314C4.14776 3.09833 3.5999 4.42097 3.5999 5.8001C3.5999 7.17922 4.14776 8.50186 5.12295 9.47705C6.09814 10.4522 7.42078 11.0001 8.7999 11.0001ZM17.8991 19.2321C18.7471 19.5793 19.8255 19.8001 21.1983 19.8001C27.5983 19.8001 27.5983 15.0001 27.5983 15.0001C27.5983 14.3639 27.3457 13.7536 26.8959 13.3036C26.4462 12.8536 25.8361 12.6005 25.1999 12.6001H17.7951C18.4239 13.3617 18.8015 14.3361 18.8015 15.4001V15.9697C18.7982 16.1044 18.7891 16.2389 18.7743 16.3729C18.6663 17.3726 18.3683 18.3428 17.8991 19.2321ZM25.1999 7.0001C25.1999 8.06096 24.7785 9.07838 24.0283 9.82852C23.2782 10.5787 22.2608 11.0001 21.1999 11.0001C20.139 11.0001 19.1216 10.5787 18.3715 9.82852C17.6213 9.07838 17.1999 8.06096 17.1999 7.0001C17.1999 5.93923 17.6213 4.92182 18.3715 4.17167C19.1216 3.42153 20.139 3.0001 21.1999 3.0001C22.2608 3.0001 23.2782 3.42153 24.0283 4.17167C24.7785 4.92182 25.1999 5.93923 25.1999 7.0001ZM0.399902 15.8001C0.399902 14.9514 0.737044 14.1375 1.33716 13.5374C1.93728 12.9372 2.75121 12.6001 3.5999 12.6001H13.9999C14.8486 12.6001 15.6625 12.9372 16.2626 13.5374C16.8628 14.1375 17.1999 14.9514 17.1999 15.8001C17.1999 15.8001 17.1999 22.2001 8.7999 22.2001C0.399902 22.2001 0.399902 15.8001 0.399902 15.8001Z" fill="#F0ECEB"/>
</svg>
