<svg width="18" height="18" viewBox="0 0 18 18" fill="none" xmlns="http://www.w3.org/2000/svg">
<path d="M7.28063 10.7194C7.35036 10.789 7.40568 10.8717 7.44342 10.9628C7.48116 11.0538 7.50059 11.1514 7.50059 11.25C7.50059 11.3486 7.48116 11.4462 7.44342 11.5372C7.40568 11.6283 7.35036 11.711 7.28063 11.7806L4.81031 14.25L6.53063 15.9694C6.63563 16.0743 6.70716 16.208 6.73615 16.3535C6.76514 16.4991 6.75028 16.65 6.69347 16.7871C6.63665 16.9242 6.54043 17.0414 6.41699 17.1238C6.29354 17.2062 6.14842 17.2501 6 17.25H1.5C1.30109 17.25 1.11032 17.171 0.96967 17.0303C0.829018 16.8897 0.75 16.6989 0.75 16.5V12C0.749883 11.8516 0.793807 11.7065 0.87621 11.583C0.958613 11.4596 1.07579 11.3633 1.21291 11.3065C1.35002 11.2497 1.50092 11.2349 1.64648 11.2639C1.79204 11.2928 1.92573 11.3644 2.03063 11.4694L3.75 13.1897L6.21938 10.7194C6.28903 10.6496 6.37175 10.5943 6.4628 10.5566C6.55384 10.5188 6.65144 10.4994 6.75 10.4994C6.84856 10.4994 6.94616 10.5188 7.03721 10.5566C7.12825 10.5943 7.21097 10.6496 7.28063 10.7194ZM4.81031 3.75L6.53063 2.03063C6.63563 1.92573 6.70716 1.79204 6.73615 1.64648C6.76514 1.50092 6.75028 1.35002 6.69347 1.21291C6.63665 1.07579 6.54043 0.958613 6.41699 0.87621C6.29354 0.793807 6.14842 0.749883 6 0.75H1.5C1.30109 0.75 1.11032 0.829018 0.96967 0.96967C0.829018 1.11032 0.75 1.30109 0.75 1.5V6C0.749883 6.14842 0.793807 6.29354 0.87621 6.41699C0.958613 6.54043 1.07579 6.63665 1.21291 6.69347C1.35002 6.75028 1.50092 6.76514 1.64648 6.73615C1.79204 6.70716 1.92573 6.63563 2.03063 6.53063L3.75 4.81031L6.21938 7.28063C6.36011 7.42136 6.55098 7.50042 6.75 7.50042C6.94902 7.50042 7.13989 7.42136 7.28063 7.28063C7.42136 7.13989 7.50042 6.94902 7.50042 6.75C7.50042 6.55098 7.42136 6.36011 7.28063 6.21938L4.81031 3.75ZM16.5 0.75H12C11.8516 0.749883 11.7065 0.793807 11.583 0.87621C11.4596 0.958613 11.3633 1.07579 11.3065 1.21291C11.2497 1.35002 11.2349 1.50092 11.2639 1.64648C11.2928 1.79204 11.3644 1.92573 11.4694 2.03063L13.1897 3.75L10.7194 6.21938C10.5786 6.36011 10.4996 6.55098 10.4996 6.75C10.4996 6.94902 10.5786 7.13989 10.7194 7.28063C10.8601 7.42136 11.051 7.50042 11.25 7.50042C11.449 7.50042 11.6399 7.42136 11.7806 7.28063L14.25 4.81031L15.9694 6.53063C16.0743 6.63563 16.208 6.70716 16.3535 6.73615C16.4991 6.76514 16.65 6.75028 16.7871 6.69347C16.9242 6.63665 17.0414 6.54043 17.1238 6.41699C17.2062 6.29354 17.2501 6.14842 17.25 6V1.5C17.25 1.30109 17.171 1.11032 17.0303 0.96967C16.8897 0.829018 16.6989 0.75 16.5 0.75ZM16.7869 11.3072C16.6498 11.2503 16.499 11.2354 16.3535 11.2643C16.208 11.2931 16.0743 11.3645 15.9694 11.4694L14.25 13.1897L11.7806 10.7194C11.6399 10.5786 11.449 10.4996 11.25 10.4996C11.051 10.4996 10.8601 10.5786 10.7194 10.7194C10.5786 10.8601 10.4996 11.051 10.4996 11.25C10.4996 11.449 10.5786 11.6399 10.7194 11.7806L13.1897 14.25L11.4694 15.9694C11.3644 16.0743 11.2928 16.208 11.2639 16.3535C11.2349 16.4991 11.2497 16.65 11.3065 16.7871C11.3633 16.9242 11.4596 17.0414 11.583 17.1238C11.7065 17.2062 11.8516 17.2501 12 17.25H16.5C16.6989 17.25 16.8897 17.171 17.0303 17.0303C17.171 16.8897 17.25 16.6989 17.25 16.5V12C17.25 11.8517 17.206 11.7067 17.1235 11.5834C17.0411 11.46 16.9239 11.3639 16.7869 11.3072Z" fill="#2E2E2E"/>
</svg>
